HIERARCHY
ROOT Hips
{
    OFFSET 0.000000 0.000000 0.000000
    CHANNELS 6 Xposition Yposition Zposition Zrotation Xrotation Yrotation
    JOINT Spine
    {
        OFFSET -0.000000 7.236184 0.000000
        CHANNELS 3 Zrotation Xrotation Yrotation
        JOINT Spine1
        {
            OFFSET -0.000000 20.420147 0.000000
            CHANNELS 3 Zrotation Xrotation Yrotation
            JOINT Neck
            {
                OFFSET -0.000000 20.336288 1.848754
                CHANNELS 3 Zrotation Xrotation Yrotation
                JOINT Head
                {
                    OFFSET -0.000000 12.354461 -1.764923
                    CHANNELS 3 Zrotation Xrotation Yrotation
                    End Site
                    {
                        OFFSET -0.000000 22.061537 0.000000
                    }
                }
            }
            JOINT LeftShoulder
            {
                OFFSET 3.573296 18.396038 -0.314103
                CHANNELS 3 Zrotation Xrotation Yrotation
                JOINT LeftArm
                {
                    OFFSET 10.880760 0.000000 0.000000
                    CHANNELS 3 Zrotation Xrotation Yrotation
                    JOINT LeftForeArm
                    {
                        OFFSET 27.185530 0.000000 0.000000
                        CHANNELS 3 Zrotation Xrotation Yrotation
                        JOINT LeftHand
                        {
                            OFFSET 27.825975 0.000000 0.000000
                            CHANNELS 3 Zrotation Xrotation Yrotation
                            End Site
                            {
                                OFFSET 13.236923 0.000000 0.000000
                            }
                        }
                    }
                }
            }
            JOINT RightShoulder
            {
                OFFSET -3.474926 18.396038 -0.314103
                CHANNELS 3 Zrotation Xrotation Yrotation
                JOINT RightArm
                {
                    OFFSET -10.880760 0.000000 0.000000
                    CHANNELS 3 Zrotation Xrotation Yrotation
                    JOINT RightForeArm
                    {
                        OFFSET -27.185530 0.000000 0.000000
                        CHANNELS 3 Zrotation Xrotation Yrotation
                        JOINT RightHand
                        {
                            OFFSET -27.825975 0.000000 0.000000
                            CHANNELS 3 Zrotation Xrotation Yrotation
                            End Site
                            {
                                OFFSET -13.236923 0.000000 0.000000
                            }
                        }
                    }
                }
            }
        }
    }
    JOINT LeftUpLeg
    {
        OFFSET 8.824615 0.000000 0.000000
        CHANNELS 3 Zrotation Xrotation Yrotation
        JOINT LeftLeg
        {
            OFFSET -0.000000 -35.111282 0.000000
            CHANNELS 3 Zrotation Xrotation Yrotation
            JOINT LeftFoot
            {
                OFFSET -0.000000 -42.324711 0.000000
                CHANNELS 3 Zrotation Xrotation Yrotation
                JOINT LeftToeBase
                {
                    OFFSET -0.000000 -5.735999 13.236923
                    CHANNELS 3 Zrotation Xrotation Yrotation
                    End Site
                    {
                        OFFSET -0.000000 0.000000 3.529846
                    }
                }
            }
        }
    }
    JOINT RightUpLeg
    {
        OFFSET -8.824615 0.000000 0.000000
        CHANNELS 3 Zrotation Xrotation Yrotation
        JOINT RightLeg
        {
            OFFSET -0.000000 -35.111282 0.000000
            CHANNELS 3 Zrotation Xrotation Yrotation
            JOINT RightFoot
            {
                OFFSET -0.000000 -42.324711 0.000000
                CHANNELS 3 Zrotation Xrotation Yrotation
                JOINT RightToeBase
                {
                    OFFSET -0.000000 -5.735999 13.236923
                    CHANNELS 3 Zrotation Xrotation Yrotation
                    End Site
                    {
                        OFFSET -0.000000 0.000000 3.529846
                    }
                }
            }
        }
    }
}
MOTION
Frames:    11
Frame Time:    0.008333
5.846433    80.223396    109.557190    1.107968    -16.127939    -171.686676    -2.003102    -8.143853    1.724635    -0.686276    2.531862    1.882401    0.860354    2.632149    -6.263983    7.827466    -12.707625    -4.668099    0.371561    13.749136    1.510216    -54.105049    23.558207    -25.505562    1.842771    -7.087376    -8.709307    17.406601    -6.967833    -0.129940    5.785535    17.970367    -7.529280    47.938366    43.684776    29.903339    -4.557042    -9.151150    25.918440    -17.776119    -7.489413    -4.028388    11.206573    -32.089081    -0.367720    0.312254    29.914089    3.410410    -11.284833    -10.729861    -16.020372    -0.921584    -2.150561    1.025577    -19.613644    -14.554003    -8.620432    2.577246    11.210529    -2.447456    15.523645    -6.329617    -9.136330    -0.534800    0.231647    0.578244    
5.605583    80.144753    109.612366    1.332466    -16.181011    -171.455185    -1.961064    -8.033058    1.732338    -0.530901    2.539551    1.881809    0.974359    2.353414    -6.385824    7.978195    -12.973226    -4.756154    0.545415    13.562550    1.294570    -53.750343    22.992188    -25.491503    1.608596    -6.895378    -8.452277    17.332470    -6.806634    -0.193444    5.813327    17.910625    -7.575730    47.869930    43.583267    29.478643    -4.652778    -9.265519    26.291834    -17.699949    -7.578329    -3.969841    11.067272    -32.649261    -0.470983    0.503971    30.648642    3.132327    -11.198647    -11.035755    -15.922569    -0.848426    -2.082963    0.944046    -19.693846    -14.665177    -8.730845    2.625948    11.426141    -2.524699    15.747396    -6.271792    -9.146109    -0.543400    0.123783    0.587630    
5.363117    80.067215    109.667137    1.558789    -16.233227    -171.226715    -1.919967    -7.922581    1.738918    -0.371032    2.545351    1.880127    1.089787    2.072825    -6.502975    8.129180    -13.238822    -4.839376    0.720744    13.372299    1.077773    -53.396503    22.430033    -25.475460    1.379429    -6.699461    -8.191400    17.261993    -6.640181    -0.257498    5.840914    17.851681    -7.622376    47.807091    43.474930    29.048563    -4.748009    -9.380471    26.658621    -17.624235    -7.667979    -3.907954    10.923412    -33.201702    -0.572516    0.704399    31.371170    2.859770    -11.114923    -11.336424    -15.835279    -0.775676    -2.011794    0.862983    -19.774204    -14.773716    -8.843360    2.675147    11.637057    -2.602236    15.974632    -6.205185    -9.149123    -0.551329    0.011646    0.596295    
5.120258    79.992805    109.720703    1.785415    -16.284868    -171.007065    -1.882635    -7.814576    1.742767    -0.203680    2.547571    1.875915    1.206460    1.792893    -6.611563    8.279873    -13.499673    -4.914136    0.897786    13.178540    0.860087    -53.046101    21.884890    -25.456503    1.160897    -6.502028    -7.932724    17.200109    -6.469675    -0.316961    5.867974    17.794044    -7.669128    47.754082    43.353195    28.615410    -4.839783    -9.492889    27.008732    -17.551023    -7.756533    -3.841583    10.778486    -33.735752    -0.664543    0.913501    32.065861    2.594491    -11.036397    -11.627233    -15.761234    -0.704579    -1.935156    0.783772    -19.853277    -14.877937    -8.957319    2.723581    11.836590    -2.680679    16.206148    -6.121946    -9.139505    -0.557591    -0.108532    0.603167    
4.874159    79.922333    109.773148    2.014547    -16.337027    -170.798325    -1.850798    -7.709190    1.742723    -0.023891    2.544523    1.867953    1.326423    1.511384    -6.709738    8.431640    -13.755322    -4.978536    1.079431    12.978075    0.638434    -52.695663    21.360649    -25.432638    0.954523    -6.302658    -7.678198    17.150482    -6.294225    -0.368492    5.895408    17.737623    -7.717232    47.713066    43.209118    28.175123    -4.925959    -9.601284    27.338734    -17.481194    -7.843415    -3.769175    10.633801    -34.249763    -0.740994    1.134601    32.728783    2.332556    -10.963536    -11.908552    -15.700476    -0.635432    -1.850618    0.706742    -19.931051    -14.977905    -9.073550    2.770972    12.021858    -2.761497    16.446321    -6.013328    -9.112005    -0.561356    -0.242301    0.607352    
4.624094    79.857353    109.823967    2.246206    -16.389996    -170.604294    -1.826140    -7.607657    1.737761    0.171385    2.534959    1.855418    1.449947    1.228661    -6.795097    8.584593    -14.002435    -5.030343    1.266615    12.770498    0.412509    -52.343723    20.865852    -25.403185    0.762936    -6.103533    -7.432215    17.116480    -6.115433    -0.408832    5.922965    17.682413    -7.767065    47.687923    43.035168    27.726879    -5.003686    -9.703075    27.641972    -17.416712    -7.927194    -3.690027    10.492163    -34.737473    -0.795882    1.368081    33.350788    2.071857    -10.896322    -12.178440    -15.652246    -0.569075    -1.757570    0.632828    -20.006996    -15.072376    -9.191185    2.816771    12.188618    -2.845262    16.697472    -5.871717    -9.062383    -0.562018    -0.393954    0.608195    
4.370066    79.799675    109.872559    2.479322    -16.444138    -170.429169    -1.809733    -7.511029    1.727386    0.383032    2.517193    1.837787    1.577121    0.946546    -6.865357    8.737643    -14.237420    -5.067770    1.459830    12.556237    0.182942    -51.990227    20.409000    -25.367445    0.588722    -5.907797    -7.199188    17.100555    -5.936138    -0.435817    5.950300    17.628975    -7.818854    47.682140    42.825195    27.272251    -5.070215    -9.795800    27.911650    -17.359642    -8.006347    -3.604719    10.356471    -35.192150    -0.824281    1.612681    33.922169    1.810497    -10.834018    -12.434185    -15.614257    -0.506498    -1.657271    0.563136    -20.080914    -15.160339    -9.308578    2.860549    12.333275    -2.931716    16.960409    -5.690866    -8.987871    -0.558505    -0.567581    0.604539    
4.110801    79.750839    109.918503    2.713885    -16.499676    -170.275925    -1.802037    -7.419710    1.711399    0.612540    2.489862    1.814967    1.707622    0.665505    -6.919297    8.890659    -14.457334    -5.089819    1.659218    12.335065    -0.050490    -51.631950    19.995396    -25.324745    0.432901    -5.718184    -6.982262    17.103962    -5.758932    -0.447969    5.976899    17.577169    -7.872983    47.699429    42.572613    26.809917    -5.123141    -9.877354    28.143051    -17.312305    -8.079554    -3.513990    10.229200    -35.609715    -0.823084    1.866641    34.437649    1.546419    -10.775122    -12.674763    -15.583283    -0.448078    -1.551132    0.498087    -20.153269    -15.241351    -9.423685    2.902590    12.454717    -3.020653    17.236986    -5.465021    -8.886800    -0.550066    -0.767783    0.595570    
3.844190    79.712357    109.961510    2.950348    -16.557091    -170.147293    -1.802848    -7.333839    1.689857    0.860868    2.451359    1.787021    1.841707    0.385609    -6.955942    9.043246    -14.659868    -5.095854    1.866118    12.106135    -0.288214    -51.264996    19.628078    -25.274529    0.295466    -5.536722    -6.783553    17.127367    -5.585861    -0.444153    6.002009    17.526964    -7.929688    47.744148    42.270569    26.337442    -5.160679    -9.946409    28.332352    -17.277523    -8.146026    -3.419013    10.112573    -35.987648    -0.789999    2.127471    34.893909    1.278140    -10.717681    -12.899508    -15.555758    -0.393723    -1.441419    0.437576    -20.225142    -15.315914    -9.533981    2.943654    12.553792    -3.111817    17.529200    -5.188259    -8.758101    -0.535511    -1.000436    0.579999    
3.571278    79.686203    110.000847    3.186400    -16.616014    -170.047226    -1.811322    -7.254195    1.663422    1.125326    2.400544    1.754712    1.977938    0.109914    -6.974305    9.192550    -14.839809    -5.085856    2.078432    11.871618    -0.527607    -50.888489    19.313253    -25.217127    0.177706    -5.367597    -6.607451    17.170561    -5.421052    -0.423556    6.024964    17.479145    -7.988945    47.818539    41.916958    25.858873    -5.181144    -10.001389    28.474577    -17.258583    -8.204370    -3.323048    10.010411    -36.319866    -0.724770    2.387742    35.284012    1.009978    -10.660590    -13.105398    -15.528984    -0.343704    -1.330289    0.381907    -20.296986    -15.384488    -9.634880    2.984393    12.632725    -3.203696    17.835052    -4.859399    -8.603515    -0.514085    -1.268128    0.557002    
3.292047    79.673943    110.035995    3.421005    -16.676146    -169.978592    -1.825868    -7.181085    1.633017    1.403539    2.336495    1.718993    2.115777    -0.158622    -6.973955    9.335743    -14.994564    -5.060314    2.295178    11.632560    -0.767486    -50.500713    19.052668    -25.152699    0.079871    -5.213395    -6.456237    17.231945    -5.267138    -0.385982    6.045155    17.433968    -8.050253    47.924660    41.510551    25.375380    -5.183912    -10.042295    28.567450    -17.258959    -8.254392    -3.229652    9.926490    -36.602879    -0.628921    2.639034    35.604858    0.747845    -10.602637    -13.290678    -15.500364    -0.297553    -1.221264    0.330560    -20.369513    -15.449029    -9.721642    3.025969    12.697484    -3.294909    18.152836    -4.478361    -8.425552    -0.485022    -1.573860    0.525739    
